<mxfile host="app.diagrams.net" agent="Mozilla/5.0 (X11; Linux x86_64) AppleWebKit/537.36 (KHTML, like Gecko) Chrome/120.0.0.0 Safari/537.36" version="24.7.16">
  <diagram name="Page-1" id="FONqAInkg9WEw7Ny8D-B">
    <mxGraphModel dx="886" dy="500" grid="1" gridSize="10" guides="1" tooltips="1" connect="1" arrows="1" fold="1" page="1" pageScale="1" pageWidth="690" pageHeight="980" math="0" shadow="0">
      <root>
        <mxCell id="0" />
        <mxCell id="1" parent="0" />
        <mxCell id="TjY0aDQHRzJIjtkyzaCk-21" value="produk" style="swimlane;fontStyle=0;childLayout=stackLayout;horizontal=1;startSize=26;horizontalStack=0;resizeParent=1;resizeParentMax=0;resizeLast=0;collapsible=1;marginBottom=0;align=center;fontSize=14;" parent="1" vertex="1">
          <mxGeometry x="410" y="430" width="130" height="220" as="geometry" />
        </mxCell>
        <mxCell id="TjY0aDQHRzJIjtkyzaCk-22" value="nama : int" style="text;strokeColor=none;fillColor=none;spacingLeft=4;spacingRight=4;overflow=hidden;rotatable=0;points=[[0,0.5],[1,0.5]];portConstraint=eastwest;fontSize=12;whiteSpace=wrap;html=1;" parent="TjY0aDQHRzJIjtkyzaCk-21" vertex="1">
          <mxGeometry y="26" width="130" height="30" as="geometry" />
        </mxCell>
        <mxCell id="TjY0aDQHRzJIjtkyzaCk-23" value="jenis&amp;nbsp; : int" style="text;strokeColor=none;fillColor=none;spacingLeft=4;spacingRight=4;overflow=hidden;rotatable=0;points=[[0,0.5],[1,0.5]];portConstraint=eastwest;fontSize=12;whiteSpace=wrap;html=1;" parent="TjY0aDQHRzJIjtkyzaCk-21" vertex="1">
          <mxGeometry y="56" width="130" height="30" as="geometry" />
        </mxCell>
        <mxCell id="TjY0aDQHRzJIjtkyzaCk-24" value="harga : int" style="text;strokeColor=none;fillColor=none;spacingLeft=4;spacingRight=4;overflow=hidden;rotatable=0;points=[[0,0.5],[1,0.5]];portConstraint=eastwest;fontSize=12;whiteSpace=wrap;html=1;" parent="TjY0aDQHRzJIjtkyzaCk-21" vertex="1">
          <mxGeometry y="86" width="130" height="30" as="geometry" />
        </mxCell>
        <mxCell id="7YcKKZlQP25DswIeewFH-14" value="" style="line;strokeWidth=1;fillColor=none;align=left;verticalAlign=middle;spacingTop=-1;spacingLeft=3;spacingRight=3;rotatable=0;labelPosition=right;points=[];portConstraint=eastwest;strokeColor=inherit;" parent="TjY0aDQHRzJIjtkyzaCk-21" vertex="1">
          <mxGeometry y="116" width="130" height="8" as="geometry" />
        </mxCell>
        <mxCell id="TjY0aDQHRzJIjtkyzaCk-52" value="input()" style="text;strokeColor=none;fillColor=none;spacingLeft=4;spacingRight=4;overflow=hidden;rotatable=0;points=[[0,0.5],[1,0.5]];portConstraint=eastwest;fontSize=12;whiteSpace=wrap;html=1;" parent="TjY0aDQHRzJIjtkyzaCk-21" vertex="1">
          <mxGeometry y="124" width="130" height="30" as="geometry" />
        </mxCell>
        <mxCell id="TjY0aDQHRzJIjtkyzaCk-53" value="menghapus()" style="text;strokeColor=none;fillColor=none;spacingLeft=4;spacingRight=4;overflow=hidden;rotatable=0;points=[[0,0.5],[1,0.5]];portConstraint=eastwest;fontSize=12;whiteSpace=wrap;html=1;" parent="TjY0aDQHRzJIjtkyzaCk-21" vertex="1">
          <mxGeometry y="154" width="130" height="36" as="geometry" />
        </mxCell>
        <mxCell id="TjY0aDQHRzJIjtkyzaCk-54" value="update()" style="text;strokeColor=none;fillColor=none;spacingLeft=4;spacingRight=4;overflow=hidden;rotatable=0;points=[[0,0.5],[1,0.5]];portConstraint=eastwest;fontSize=12;whiteSpace=wrap;html=1;" parent="TjY0aDQHRzJIjtkyzaCk-21" vertex="1">
          <mxGeometry y="190" width="130" height="30" as="geometry" />
        </mxCell>
        <mxCell id="TjY0aDQHRzJIjtkyzaCk-29" value="jenis_produk" style="swimlane;fontStyle=0;childLayout=stackLayout;horizontal=1;startSize=26;horizontalStack=0;resizeParent=1;resizeParentMax=0;resizeLast=0;collapsible=1;marginBottom=0;align=center;fontSize=14;" parent="1" vertex="1">
          <mxGeometry x="190" y="300" width="127" height="150" as="geometry" />
        </mxCell>
        <mxCell id="7YcKKZlQP25DswIeewFH-6" value="nama: int" style="text;strokeColor=none;fillColor=none;align=left;verticalAlign=top;spacingLeft=4;spacingRight=4;overflow=hidden;rotatable=0;points=[[0,0.5],[1,0.5]];portConstraint=eastwest;whiteSpace=wrap;html=1;" parent="TjY0aDQHRzJIjtkyzaCk-29" vertex="1">
          <mxGeometry y="26" width="127" height="26" as="geometry" />
        </mxCell>
        <mxCell id="7YcKKZlQP25DswIeewFH-10" value="" style="line;strokeWidth=1;fillColor=none;align=left;verticalAlign=middle;spacingTop=-1;spacingLeft=3;spacingRight=3;rotatable=0;labelPosition=right;points=[];portConstraint=eastwest;strokeColor=inherit;" parent="TjY0aDQHRzJIjtkyzaCk-29" vertex="1">
          <mxGeometry y="52" width="127" height="8" as="geometry" />
        </mxCell>
        <mxCell id="TjY0aDQHRzJIjtkyzaCk-35" value="input()" style="text;strokeColor=none;fillColor=none;spacingLeft=4;spacingRight=4;overflow=hidden;rotatable=0;points=[[0,0.5],[1,0.5]];portConstraint=eastwest;fontSize=12;whiteSpace=wrap;html=1;" parent="TjY0aDQHRzJIjtkyzaCk-29" vertex="1">
          <mxGeometry y="60" width="127" height="30" as="geometry" />
        </mxCell>
        <mxCell id="TjY0aDQHRzJIjtkyzaCk-36" value="menghapus()" style="text;strokeColor=none;fillColor=none;spacingLeft=4;spacingRight=4;overflow=hidden;rotatable=0;points=[[0,0.5],[1,0.5]];portConstraint=eastwest;fontSize=12;whiteSpace=wrap;html=1;" parent="TjY0aDQHRzJIjtkyzaCk-29" vertex="1">
          <mxGeometry y="90" width="127" height="30" as="geometry" />
        </mxCell>
        <mxCell id="TjY0aDQHRzJIjtkyzaCk-37" value="update()" style="text;strokeColor=none;fillColor=none;spacingLeft=4;spacingRight=4;overflow=hidden;rotatable=0;points=[[0,0.5],[1,0.5]];portConstraint=eastwest;fontSize=12;whiteSpace=wrap;html=1;" parent="TjY0aDQHRzJIjtkyzaCk-29" vertex="1">
          <mxGeometry y="120" width="127" height="30" as="geometry" />
        </mxCell>
        <mxCell id="TjY0aDQHRzJIjtkyzaCk-67" value="pesanan" style="swimlane;fontStyle=0;childLayout=stackLayout;horizontal=1;startSize=26;horizontalStack=0;resizeParent=1;resizeParentMax=0;resizeLast=0;collapsible=1;marginBottom=0;align=center;fontSize=14;" parent="1" vertex="1">
          <mxGeometry x="640" y="360" width="140" height="304" as="geometry" />
        </mxCell>
        <mxCell id="7YcKKZlQP25DswIeewFH-19" value="" style="edgeStyle=entityRelationEdgeStyle;fontSize=12;html=1;endArrow=ERmany;startArrow=ERmany;rounded=0;" parent="TjY0aDQHRzJIjtkyzaCk-67" source="TjY0aDQHRzJIjtkyzaCk-22" edge="1">
          <mxGeometry width="100" height="100" relative="1" as="geometry">
            <mxPoint x="-130" y="86" as="sourcePoint" />
            <mxPoint y="36" as="targetPoint" />
          </mxGeometry>
        </mxCell>
        <mxCell id="TjY0aDQHRzJIjtkyzaCk-71" value="no_meja : int" style="text;strokeColor=none;fillColor=none;spacingLeft=4;spacingRight=4;overflow=hidden;rotatable=0;points=[[0,0.5],[1,0.5]];portConstraint=eastwest;fontSize=12;whiteSpace=wrap;html=1;" parent="TjY0aDQHRzJIjtkyzaCk-67" vertex="1">
          <mxGeometry y="26" width="140" height="30" as="geometry" />
        </mxCell>
        <mxCell id="TjY0aDQHRzJIjtkyzaCk-72" value="nama : str&amp;nbsp;" style="text;strokeColor=none;fillColor=none;spacingLeft=4;spacingRight=4;overflow=hidden;rotatable=0;points=[[0,0.5],[1,0.5]];portConstraint=eastwest;fontSize=12;whiteSpace=wrap;html=1;" parent="TjY0aDQHRzJIjtkyzaCk-67" vertex="1">
          <mxGeometry y="56" width="140" height="30" as="geometry" />
        </mxCell>
        <mxCell id="TjY0aDQHRzJIjtkyzaCk-73" value="alamat :&amp;nbsp; text" style="text;strokeColor=none;fillColor=none;spacingLeft=4;spacingRight=4;overflow=hidden;rotatable=0;points=[[0,0.5],[1,0.5]];portConstraint=eastwest;fontSize=12;whiteSpace=wrap;html=1;" parent="TjY0aDQHRzJIjtkyzaCk-67" vertex="1">
          <mxGeometry y="86" width="140" height="30" as="geometry" />
        </mxCell>
        <mxCell id="TjY0aDQHRzJIjtkyzaCk-74" value="no_handphone : int" style="text;strokeColor=none;fillColor=none;spacingLeft=4;spacingRight=4;overflow=hidden;rotatable=0;points=[[0,0.5],[1,0.5]];portConstraint=eastwest;fontSize=12;whiteSpace=wrap;html=1;" parent="TjY0aDQHRzJIjtkyzaCk-67" vertex="1">
          <mxGeometry y="116" width="140" height="30" as="geometry" />
        </mxCell>
        <mxCell id="TjY0aDQHRzJIjtkyzaCk-76" value="jumlah : int&amp;nbsp;" style="text;strokeColor=none;fillColor=none;spacingLeft=4;spacingRight=4;overflow=hidden;rotatable=0;points=[[0,0.5],[1,0.5]];portConstraint=eastwest;fontSize=12;whiteSpace=wrap;html=1;" parent="TjY0aDQHRzJIjtkyzaCk-67" vertex="1">
          <mxGeometry y="146" width="140" height="30" as="geometry" />
        </mxCell>
        <mxCell id="TjY0aDQHRzJIjtkyzaCk-77" value="tgl_pesan : datetime" style="text;strokeColor=none;fillColor=none;spacingLeft=4;spacingRight=4;overflow=hidden;rotatable=0;points=[[0,0.5],[1,0.5]];portConstraint=eastwest;fontSize=12;whiteSpace=wrap;html=1;" parent="TjY0aDQHRzJIjtkyzaCk-67" vertex="1">
          <mxGeometry y="176" width="140" height="30" as="geometry" />
        </mxCell>
        <mxCell id="TjY0aDQHRzJIjtkyzaCk-78" value="produk : time" style="text;strokeColor=none;fillColor=none;spacingLeft=4;spacingRight=4;overflow=hidden;rotatable=0;points=[[0,0.5],[1,0.5]];portConstraint=eastwest;fontSize=12;whiteSpace=wrap;html=1;" parent="TjY0aDQHRzJIjtkyzaCk-67" vertex="1">
          <mxGeometry y="206" width="140" height="30" as="geometry" />
        </mxCell>
        <mxCell id="7YcKKZlQP25DswIeewFH-15" value="" style="line;strokeWidth=1;fillColor=none;align=left;verticalAlign=middle;spacingTop=-1;spacingLeft=3;spacingRight=3;rotatable=0;labelPosition=right;points=[];portConstraint=eastwest;strokeColor=inherit;" parent="TjY0aDQHRzJIjtkyzaCk-67" vertex="1">
          <mxGeometry y="236" width="140" height="8" as="geometry" />
        </mxCell>
        <mxCell id="TjY0aDQHRzJIjtkyzaCk-79" value="input()" style="text;strokeColor=none;fillColor=none;spacingLeft=4;spacingRight=4;overflow=hidden;rotatable=0;points=[[0,0.5],[1,0.5]];portConstraint=eastwest;fontSize=12;whiteSpace=wrap;html=1;" parent="TjY0aDQHRzJIjtkyzaCk-67" vertex="1">
          <mxGeometry y="244" width="140" height="30" as="geometry" />
        </mxCell>
        <mxCell id="TjY0aDQHRzJIjtkyzaCk-80" value="menghapus()" style="text;strokeColor=none;fillColor=none;spacingLeft=4;spacingRight=4;overflow=hidden;rotatable=0;points=[[0,0.5],[1,0.5]];portConstraint=eastwest;fontSize=12;whiteSpace=wrap;html=1;" parent="TjY0aDQHRzJIjtkyzaCk-67" vertex="1">
          <mxGeometry y="274" width="140" height="30" as="geometry" />
        </mxCell>
        <mxCell id="7YcKKZlQP25DswIeewFH-2" value="" style="edgeStyle=entityRelationEdgeStyle;fontSize=12;html=1;endArrow=ERzeroToMany;startArrow=ERmandOne;rounded=0;" parent="1" source="TjY0aDQHRzJIjtkyzaCk-23" target="7YcKKZlQP25DswIeewFH-6" edge="1">
          <mxGeometry width="100" height="100" relative="1" as="geometry">
            <mxPoint x="740" y="220" as="sourcePoint" />
            <mxPoint x="430" y="80" as="targetPoint" />
          </mxGeometry>
        </mxCell>
      </root>
    </mxGraphModel>
  </diagram>
</mxfile>
